<svg width="41" height="28" viewBox="0 0 41 28" fill="none" xmlns="http://www.w3.org/2000/svg">
<path d="M0 16.417V24.6581C0 26.1514 1.21868 27.3621 2.7226 27.3621H10.0699V12.7524L0 16.417Z" fill="url(#paint0_linear_0_1)"/>
<path d="M10.49 12.7524L14.0867 18.1156V27.3618L10.49 22.456V12.7524Z" fill="url(#paint1_linear_0_1)"/>
<path d="M14.507 10.3784V27.3617H24.582L24.5769 6.71387L14.507 10.3784Z" fill="url(#paint2_linear_0_1)"/>
<path d="M24.9966 6.71387L29.0916 13.7755V27.3621L24.9988 20.0978L24.9966 6.71387Z" fill="url(#paint3_linear_0_1)"/>
<path d="M29.5115 4.15142V27.3619H38.1889C39.6924 27.3619 40.9111 26.1515 40.9111 24.6578V0L29.5115 4.15142Z" fill="url(#paint4_linear_0_1)"/>
<defs>
<linearGradient id="paint0_linear_0_1" x1="-6.21574e-08" y1="-0.000107761" x2="43.9505" y2="6.36026" gradientUnits="userSpaceOnUse">
<stop stop-color="#2D8DFE"/>
<stop offset="1" stop-color="#0E77F1"/>
</linearGradient>
<linearGradient id="paint1_linear_0_1" x1="1.37912e-05" y1="-0.000108734" x2="43.9505" y2="6.36026" gradientUnits="userSpaceOnUse">
<stop stop-color="#2D8DFE"/>
<stop offset="1" stop-color="#0E77F1"/>
</linearGradient>
<linearGradient id="paint2_linear_0_1" x1="-9.10046e-06" y1="-0.000172869" x2="43.9504" y2="6.3602" gradientUnits="userSpaceOnUse">
<stop stop-color="#2D8DFE"/>
<stop offset="1" stop-color="#0E77F1"/>
</linearGradient>
<linearGradient id="paint3_linear_0_1" x1="-7.66835e-06" y1="0.000239651" x2="43.9505" y2="6.36061" gradientUnits="userSpaceOnUse">
<stop stop-color="#2D8DFE"/>
<stop offset="1" stop-color="#0E77F1"/>
</linearGradient>
<linearGradient id="paint4_linear_0_1" x1="7.81514e-06" y1="7.92918e-07" x2="43.9505" y2="6.36037" gradientUnits="userSpaceOnUse">
<stop stop-color="#2D8DFE"/>
<stop offset="1" stop-color="#0E77F1"/>
</linearGradient>
</defs>
</svg>
